<mxfile host="Electron" agent="Mozilla/5.0 (Windows NT 10.0; Win64; x64) AppleWebKit/537.36 (KHTML, like Gecko) draw.io/25.0.1 Chrome/128.0.6613.186 Electron/32.2.6 Safari/537.36" version="25.0.1">
  <diagram name="Page-1" id="6Rx4KnUefq6yN6lQiAwl">
    <mxGraphModel dx="1221" dy="831" grid="1" gridSize="10" guides="1" tooltips="1" connect="1" arrows="1" fold="1" page="1" pageScale="1" pageWidth="850" pageHeight="1100" math="0" shadow="0">
      <root>
        <mxCell id="0" />
        <mxCell id="1" parent="0" />
        <mxCell id="pmrZB-z_Uy2FwyvLe3AK-3" value="" style="edgeStyle=orthogonalEdgeStyle;rounded=0;orthogonalLoop=1;jettySize=auto;html=1;" edge="1" parent="1" source="pmrZB-z_Uy2FwyvLe3AK-1" target="pmrZB-z_Uy2FwyvLe3AK-2">
          <mxGeometry relative="1" as="geometry" />
        </mxCell>
        <mxCell id="pmrZB-z_Uy2FwyvLe3AK-9" style="edgeStyle=orthogonalEdgeStyle;rounded=0;orthogonalLoop=1;jettySize=auto;html=1;" edge="1" parent="1" source="pmrZB-z_Uy2FwyvLe3AK-1" target="pmrZB-z_Uy2FwyvLe3AK-7">
          <mxGeometry relative="1" as="geometry" />
        </mxCell>
        <mxCell id="pmrZB-z_Uy2FwyvLe3AK-1" value="main()" style="text;html=1;align=center;verticalAlign=middle;resizable=0;points=[];autosize=1;strokeColor=none;fillColor=none;" vertex="1" parent="1">
          <mxGeometry x="70" y="100" width="60" height="30" as="geometry" />
        </mxCell>
        <mxCell id="pmrZB-z_Uy2FwyvLe3AK-11" value="" style="edgeStyle=orthogonalEdgeStyle;rounded=0;orthogonalLoop=1;jettySize=auto;html=1;" edge="1" parent="1" source="pmrZB-z_Uy2FwyvLe3AK-2" target="pmrZB-z_Uy2FwyvLe3AK-10">
          <mxGeometry relative="1" as="geometry" />
        </mxCell>
        <mxCell id="pmrZB-z_Uy2FwyvLe3AK-2" value="process_connections" style="text;html=1;align=center;verticalAlign=middle;resizable=0;points=[];autosize=1;strokeColor=none;fillColor=none;" vertex="1" parent="1">
          <mxGeometry x="140" y="170" width="140" height="30" as="geometry" />
        </mxCell>
        <mxCell id="pmrZB-z_Uy2FwyvLe3AK-7" value="server_controls" style="text;html=1;align=center;verticalAlign=middle;resizable=0;points=[];autosize=1;strokeColor=none;fillColor=none;" vertex="1" parent="1">
          <mxGeometry x="45" y="260" width="110" height="30" as="geometry" />
        </mxCell>
        <mxCell id="pmrZB-z_Uy2FwyvLe3AK-13" value="" style="edgeStyle=orthogonalEdgeStyle;rounded=0;orthogonalLoop=1;jettySize=auto;html=1;" edge="1" parent="1" source="pmrZB-z_Uy2FwyvLe3AK-10" target="pmrZB-z_Uy2FwyvLe3AK-12">
          <mxGeometry relative="1" as="geometry" />
        </mxCell>
        <mxCell id="pmrZB-z_Uy2FwyvLe3AK-16" style="edgeStyle=orthogonalEdgeStyle;rounded=0;orthogonalLoop=1;jettySize=auto;html=1;" edge="1" parent="1" source="pmrZB-z_Uy2FwyvLe3AK-10" target="pmrZB-z_Uy2FwyvLe3AK-14">
          <mxGeometry relative="1" as="geometry" />
        </mxCell>
        <mxCell id="pmrZB-z_Uy2FwyvLe3AK-10" value="process_clients" style="text;html=1;align=center;verticalAlign=middle;resizable=0;points=[];autosize=1;strokeColor=none;fillColor=none;" vertex="1" parent="1">
          <mxGeometry x="210" y="240" width="110" height="30" as="geometry" />
        </mxCell>
        <mxCell id="pmrZB-z_Uy2FwyvLe3AK-12" value="client_listen" style="text;html=1;align=center;verticalAlign=middle;resizable=0;points=[];autosize=1;strokeColor=none;fillColor=none;" vertex="1" parent="1">
          <mxGeometry x="390" y="240" width="90" height="30" as="geometry" />
        </mxCell>
        <mxCell id="pmrZB-z_Uy2FwyvLe3AK-14" value="client_send" style="text;html=1;align=center;verticalAlign=middle;resizable=0;points=[];autosize=1;strokeColor=none;fillColor=none;" vertex="1" parent="1">
          <mxGeometry x="225" y="320" width="80" height="30" as="geometry" />
        </mxCell>
      </root>
    </mxGraphModel>
  </diagram>
</mxfile>
